<svg width="27" height="27" viewBox="0 0 27 27" fill="none" xmlns="http://www.w3.org/2000/svg">
<g id="Union">
<g id="Union_2">
<path fill-rule="evenodd" clip-rule="evenodd" d="M21.2985 11.649C21.2985 16.9456 17.0047 21.2394 11.7081 21.2394C6.41144 21.2394 2.11768 16.9456 2.11768 11.649C2.11768 6.35236 6.41144 2.05859 11.7081 2.05859C17.0047 2.05859 21.2985 6.35236 21.2985 11.649ZM18.8452 19.4732C16.9626 21.1915 14.4577 22.2394 11.7081 22.2394C5.85916 22.2394 1.11768 17.4979 1.11768 11.649C1.11768 5.80008 5.85916 1.05859 11.7081 1.05859C17.557 1.05859 22.2985 5.80008 22.2985 11.649C22.2985 14.3987 21.2506 16.9036 19.5323 18.7861C19.5657 18.8065 19.5973 18.8311 19.6262 18.86L25.6779 24.9117C25.8731 25.1069 25.8731 25.4235 25.6779 25.6188C25.4826 25.814 25.166 25.814 24.9707 25.6188L18.9191 19.5671C18.8902 19.5382 18.8656 19.5067 18.8452 19.4732Z" fill="white"/>
<path d="M18.8452 19.4732L19.0588 19.3433L18.9009 19.0839L18.6767 19.2886L18.8452 19.4732ZM19.5323 18.7861L19.3477 18.6176L19.143 18.8418L19.4023 18.9997L19.5323 18.7861ZM19.6262 18.86L19.803 18.6832L19.6262 18.86ZM25.6779 24.9117L25.8546 24.7349V24.7349L25.6779 24.9117ZM25.6779 25.6188L25.8546 25.7955V25.7955L25.6779 25.6188ZM24.9707 25.6188L24.794 25.7955L24.9707 25.6188ZM18.9191 19.5671L19.0959 19.3903L18.9191 19.5671ZM11.7081 21.4894C17.1428 21.4894 21.5485 17.0837 21.5485 11.649H21.0485C21.0485 16.8075 16.8666 20.9894 11.7081 20.9894V21.4894ZM1.86768 11.649C1.86768 17.0837 6.27337 21.4894 11.7081 21.4894V20.9894C6.54951 20.9894 2.36768 16.8075 2.36768 11.649H1.86768ZM11.7081 1.80859C6.27337 1.80859 1.86768 6.21429 1.86768 11.649H2.36768C2.36768 6.49043 6.54951 2.30859 11.7081 2.30859V1.80859ZM21.5485 11.649C21.5485 6.21429 17.1428 1.80859 11.7081 1.80859V2.30859C16.8666 2.30859 21.0485 6.49043 21.0485 11.649H21.5485ZM11.7081 22.4894C14.5225 22.4894 17.0869 21.4165 19.0138 19.6579L18.6767 19.2886C16.8384 20.9664 14.393 21.9894 11.7081 21.9894V22.4894ZM0.867676 11.649C0.867676 17.636 5.72109 22.4894 11.7081 22.4894V21.9894C5.99723 21.9894 1.36768 17.3598 1.36768 11.649H0.867676ZM11.7081 0.808594C5.72109 0.808594 0.867676 5.662 0.867676 11.649H1.36768C1.36768 5.93815 5.99723 1.30859 11.7081 1.30859V0.808594ZM22.5485 11.649C22.5485 5.662 17.6951 0.808594 11.7081 0.808594V1.30859C17.4189 1.30859 22.0485 5.93815 22.0485 11.649H22.5485ZM19.717 18.9547C21.4756 17.0278 22.5485 14.4634 22.5485 11.649H22.0485C22.0485 14.3339 21.0255 16.7793 19.3477 18.6176L19.717 18.9547ZM19.4023 18.9997C19.4189 19.0098 19.4347 19.0221 19.4494 19.0368L19.803 18.6832C19.7599 18.6401 19.7126 18.6032 19.6623 18.5726L19.4023 18.9997ZM19.4494 19.0368L25.5011 25.0884L25.8546 24.7349L19.803 18.6832L19.4494 19.0368ZM25.5011 25.0884C25.5987 25.1861 25.5987 25.3444 25.5011 25.442L25.8546 25.7955C26.1475 25.5026 26.1475 25.0278 25.8546 24.7349L25.5011 25.0884ZM25.5011 25.442C25.4034 25.5396 25.2452 25.5396 25.1475 25.442L24.794 25.7955C25.0869 26.0884 25.5617 26.0884 25.8546 25.7955L25.5011 25.442ZM25.1475 25.442L19.0959 19.3903L18.7423 19.7439L24.794 25.7955L25.1475 25.442ZM19.0959 19.3903C19.0812 19.3756 19.0689 19.3598 19.0588 19.3433L18.6317 19.6032C18.6623 19.6535 18.6992 19.7008 18.7423 19.7439L19.0959 19.3903Z" fill="white"/>
</g>
</g>
</svg>
