<svg width="41" height="42" viewBox="0 0 41 42" fill="none" xmlns="http://www.w3.org/2000/svg">
<g id="Component 6">
<g id="Union">
<path fill-rule="evenodd" clip-rule="evenodd" d="M30.3948 22.8914C30.6427 21.961 30.7748 20.9833 30.7748 19.9748C30.7748 18.715 30.5687 17.5034 30.1883 16.3719C30.1707 16.3737 30.1529 16.3747 30.1349 16.3747H24.0527C24.5749 18.6102 24.6089 20.7269 24.3257 22.6609C24.3144 22.738 24.3026 22.8149 24.2903 22.8914H30.3948ZM23.2767 22.8914H15.6729C15.6517 22.7671 15.6318 22.642 15.6133 22.516C15.3392 20.6439 15.3788 18.5754 15.9255 16.3747H23.0241C23.5708 18.5754 23.6104 20.6439 23.3363 22.516C23.3178 22.642 23.2979 22.7671 23.2767 22.8914ZM23.7883 15.3747H29.7992C28.1532 11.6861 24.5885 9.04168 20.3735 8.71002C22.0651 10.9934 23.1555 13.2328 23.7883 15.3747ZM19.4748 9.17762C21.0751 11.3098 22.1195 13.3904 22.7429 15.3747H16.2067C16.8301 13.3904 17.8746 11.3098 19.4748 9.17762ZM23.0726 23.8914C22.3504 26.9337 20.8381 29.3699 19.4748 30.8668C18.1115 29.3699 16.5992 26.9337 15.877 23.8914H23.0726ZM20.4877 31.23C21.9117 29.5649 23.4021 27.0184 24.0987 23.8914H30.0776C28.5966 27.8992 24.9081 30.8373 20.4877 31.23ZM14.6239 22.6609C14.3407 20.7269 14.3747 18.6102 14.8969 16.3747H8.95154C8.88812 16.3747 8.82747 16.3629 8.77164 16.3414C8.38467 17.4816 8.1748 18.7037 8.1748 19.9748C8.1748 21.2101 8.37301 22.399 8.73936 23.5116C8.72985 23.4731 8.7248 23.4328 8.7248 23.3914C8.7248 23.1153 8.94866 22.8914 9.2248 22.8914H14.6593C14.647 22.8149 14.6352 22.738 14.6239 22.6609ZM15.1613 15.3747C15.7942 13.2328 16.8845 10.9934 18.5761 8.71002C14.3611 9.04168 10.7964 11.6861 9.15043 15.3747H15.1613ZM9.2248 23.8914H14.8509C15.5475 27.0184 17.0379 29.5649 18.4619 31.23C13.9301 30.8274 10.1676 27.7496 8.76429 23.5865C8.8403 23.7657 9.01787 23.8914 9.2248 23.8914ZM19.4748 32.2748C26.2679 32.2748 31.7748 26.7679 31.7748 19.9748C31.7748 13.1817 26.2679 7.6748 19.4748 7.6748C12.6817 7.6748 7.1748 13.1817 7.1748 19.9748C7.1748 26.7679 12.6817 32.2748 19.4748 32.2748Z" fill="white"/>
<path d="M30.3948 22.8914V23.1414H30.5869L30.6364 22.9558L30.3948 22.8914ZM30.1883 16.3719L30.4252 16.2922L30.3613 16.1021L30.1619 16.1233L30.1883 16.3719ZM24.0527 16.3747V16.1247H23.7376L23.8093 16.4316L24.0527 16.3747ZM24.3257 22.6609L24.0783 22.6246V22.6246L24.3257 22.6609ZM24.2903 22.8914L24.0435 22.8518L23.997 23.1414H24.2903V22.8914ZM23.2767 22.8914V23.1414H23.4876L23.5231 22.9335L23.2767 22.8914ZM15.6729 22.8914L15.4265 22.9335L15.4621 23.1414H15.6729V22.8914ZM15.6133 22.516L15.366 22.5522V22.5522L15.6133 22.516ZM15.9255 16.3747V16.1247H15.73L15.6829 16.3144L15.9255 16.3747ZM23.0241 16.3747L23.2667 16.3144L23.2196 16.1247H23.0241V16.3747ZM23.3363 22.516L23.5836 22.5522V22.5522L23.3363 22.516ZM23.7883 15.3747L23.5485 15.4455L23.6014 15.6247H23.7883V15.3747ZM29.7992 15.3747V15.6247H30.1845L30.0275 15.2728L29.7992 15.3747ZM20.3735 8.71002L20.3931 8.46079L19.8458 8.41773L20.1726 8.85884L20.3735 8.71002ZM22.7429 15.3747V15.6247H23.0835L22.9814 15.2998L22.7429 15.3747ZM19.4748 9.17762L19.6748 9.02755L19.4748 8.76114L19.2749 9.02755L19.4748 9.17762ZM16.2067 15.3747L15.9682 15.2998L15.8661 15.6247H16.2067V15.3747ZM19.4748 30.8668L19.29 31.0351L19.4748 31.2381L19.6596 31.0351L19.4748 30.8668ZM23.0726 23.8914L23.3159 23.9491L23.3889 23.6414H23.0726V23.8914ZM15.877 23.8914V23.6414H15.5607L15.6338 23.9491L15.877 23.8914ZM24.0987 23.8914V23.6414H23.8983L23.8547 23.837L24.0987 23.8914ZM20.4877 31.23L20.2977 31.0675L19.8994 31.5332L20.5098 31.479L20.4877 31.23ZM30.0776 23.8914L30.3121 23.9781L30.4365 23.6414H30.0776V23.8914ZM14.8969 16.3747L15.1403 16.4316L15.212 16.1247H14.8969V16.3747ZM14.6239 22.6609L14.8713 22.6246L14.6239 22.6609ZM8.77164 16.3414L8.86162 16.1081L8.61861 16.0144L8.53491 16.261L8.77164 16.3414ZM8.73936 23.5116L8.5019 23.5898L8.98207 23.4517L8.73936 23.5116ZM14.6593 22.8914V23.1414H14.9526L14.9061 22.8518L14.6593 22.8914ZM18.5761 8.71002L18.777 8.85884L19.1038 8.41773L18.5565 8.46079L18.5761 8.71002ZM15.1613 15.3747V15.6247H15.3482L15.4011 15.4455L15.1613 15.3747ZM9.15043 15.3747L8.92213 15.2728L8.76511 15.6247H9.15043V15.3747ZM14.8509 23.8914L15.0949 23.837L15.0513 23.6414H14.8509V23.8914ZM18.4619 31.23L18.4398 31.479L19.0502 31.5332L18.6519 31.0675L18.4619 31.23ZM8.76429 23.5865L8.99445 23.4889L8.52739 23.6663L8.76429 23.5865ZM30.5248 19.9748C30.5248 20.9614 30.3956 21.9174 30.1532 22.827L30.6364 22.9558C30.8898 22.0045 31.0248 21.0052 31.0248 19.9748H30.5248ZM29.9513 16.4515C30.3232 17.5578 30.5248 18.7425 30.5248 19.9748H31.0248C31.0248 18.6876 30.8141 17.4491 30.4252 16.2922L29.9513 16.4515ZM30.1349 16.6247C30.1618 16.6247 30.1885 16.6233 30.2147 16.6205L30.1619 16.1233C30.153 16.1242 30.144 16.1247 30.1349 16.1247V16.6247ZM24.0527 16.6247H30.1349V16.1247H24.0527V16.6247ZM23.8093 16.4316C24.3239 18.6348 24.3573 20.7198 24.0783 22.6246L24.5731 22.6971C24.8606 20.734 24.8259 18.5857 24.2962 16.3178L23.8093 16.4316ZM24.0783 22.6246C24.0672 22.7006 24.0556 22.7763 24.0435 22.8518L24.5372 22.931C24.5496 22.8534 24.5616 22.7754 24.5731 22.6971L24.0783 22.6246ZM30.3948 22.6414H24.2903V23.1414H30.3948V22.6414ZM23.2767 22.6414H15.6729V23.1414H23.2767V22.6414ZM15.9194 22.8493C15.8984 22.7269 15.8789 22.6038 15.8607 22.4797L15.366 22.5522C15.3847 22.6802 15.4049 22.8073 15.4265 22.9335L15.9194 22.8493ZM15.8607 22.4797C15.591 20.6378 15.6298 18.6021 16.1681 16.435L15.6829 16.3144C15.1278 18.5487 15.0874 20.6501 15.366 22.5522L15.8607 22.4797ZM15.9255 16.6247H23.0241V16.1247H15.9255V16.6247ZM23.5836 22.5522C23.8622 20.6501 23.8218 18.5487 23.2667 16.3144L22.7815 16.435C23.3199 18.6021 23.3586 20.6378 23.0889 22.4797L23.5836 22.5522ZM23.5231 22.9335C23.5447 22.8073 23.5649 22.6802 23.5836 22.5522L23.0889 22.4797C23.0707 22.6038 23.0512 22.7269 23.0303 22.8493L23.5231 22.9335ZM23.7883 15.6247H29.7992V15.1247H23.7883V15.6247ZM30.0275 15.2728C28.3453 11.503 24.7021 8.79985 20.3931 8.46079L20.3539 8.95925C24.4749 9.28351 27.9611 11.8691 29.5709 15.4766L30.0275 15.2728ZM20.1726 8.85884C21.8481 11.1203 22.9246 13.3336 23.5485 15.4455L24.028 15.3039C23.3864 13.132 22.2822 10.8664 20.5744 8.5612L20.1726 8.85884ZM22.9814 15.2998C22.3489 13.2864 21.2907 11.1807 19.6748 9.02755L19.2749 9.32769C20.8594 11.4389 21.8901 13.4943 22.5044 15.4496L22.9814 15.2998ZM16.2067 15.6247H22.7429V15.1247H16.2067V15.6247ZM19.2749 9.02755C17.6589 11.1807 16.6007 13.2864 15.9682 15.2998L16.4452 15.4496C17.0595 13.4943 18.0902 11.4389 19.6748 9.32769L19.2749 9.02755ZM19.6596 31.0351C21.0487 29.5099 22.583 27.0364 23.3159 23.9491L22.8294 23.8337C22.1178 26.831 20.6275 29.2299 19.29 30.6985L19.6596 31.0351ZM15.6338 23.9491C16.3666 27.0364 17.9009 29.5099 19.29 31.0351L19.6596 30.6985C18.3221 29.2299 16.8318 26.831 16.1202 23.8337L15.6338 23.9491ZM23.0726 23.6414H15.877V24.1414H23.0726V23.6414ZM23.8547 23.837C23.1679 26.9198 21.6981 29.43 20.2977 31.0675L20.6777 31.3925C22.1253 29.6998 23.6363 27.1169 24.3428 23.9458L23.8547 23.837ZM30.0776 23.6414H24.0987V24.1414H30.0776V23.6414ZM20.5098 31.479C25.0288 31.0776 28.7985 28.0743 30.3121 23.9781L29.8431 23.8047C28.3948 27.7242 24.7875 30.597 20.4656 30.981L20.5098 31.479ZM14.6534 16.3178C14.1237 18.5857 14.0891 20.734 14.3765 22.6971L14.8713 22.6246C14.5923 20.7198 14.6257 18.6348 15.1403 16.4316L14.6534 16.3178ZM8.95154 16.6247H14.8969V16.1247H8.95154V16.6247ZM8.68167 16.5746C8.76574 16.607 8.85687 16.6247 8.95154 16.6247V16.1247C8.91937 16.1247 8.88919 16.1188 8.86162 16.1081L8.68167 16.5746ZM8.4248 19.9748C8.4248 18.7314 8.63008 17.5365 9.00838 16.4217L8.53491 16.261C8.13927 17.4268 7.9248 18.676 7.9248 19.9748H8.4248ZM8.97682 23.4335C8.61867 22.3458 8.4248 21.1832 8.4248 19.9748H7.9248C7.9248 21.2369 8.12735 22.4523 8.5019 23.5898L8.97682 23.4335ZM8.4748 23.3914C8.4748 23.4532 8.48233 23.5136 8.49664 23.5716L8.98207 23.4517C8.97736 23.4327 8.9748 23.4125 8.9748 23.3914H8.4748ZM9.2248 22.6414C8.81059 22.6414 8.4748 22.9772 8.4748 23.3914H8.9748C8.9748 23.2533 9.08673 23.1414 9.2248 23.1414V22.6414ZM14.6593 22.6414H9.2248V23.1414H14.6593V22.6414ZM14.3765 22.6971C14.388 22.7754 14.4 22.8534 14.4125 22.931L14.9061 22.8518C14.894 22.7763 14.8824 22.7006 14.8713 22.6246L14.3765 22.6971ZM18.3752 8.5612C16.6674 10.8664 15.5633 13.132 14.9216 15.3039L15.4011 15.4455C16.0251 13.3336 17.1016 11.1203 18.777 8.85884L18.3752 8.5612ZM9.37873 15.4766C10.9885 11.8691 14.4747 9.28351 18.5957 8.95925L18.5565 8.46079C14.2475 8.79985 10.6043 11.503 8.92213 15.2728L9.37873 15.4766ZM15.1613 15.1247H9.15043V15.6247H15.1613V15.1247ZM14.8509 23.6414H9.2248V24.1414H14.8509V23.6414ZM18.6519 31.0675C17.2515 29.43 15.7817 26.9198 15.0949 23.837L14.6068 23.9458C15.3133 27.1169 16.8243 29.6998 18.2719 31.3925L18.6519 31.0675ZM8.52739 23.6663C9.9617 27.9214 13.807 31.0675 18.4398 31.479L18.484 30.981C14.0532 30.5874 10.3735 27.5778 9.00119 23.5066L8.52739 23.6663ZM9.2248 23.6414C9.12173 23.6414 9.03266 23.579 8.99445 23.4889L8.53414 23.6841C8.64795 23.9524 8.91402 24.1414 9.2248 24.1414V23.6414ZM31.5248 19.9748C31.5248 26.6298 26.1298 32.0248 19.4748 32.0248V32.5248C26.406 32.5248 32.0248 26.906 32.0248 19.9748H31.5248ZM19.4748 7.9248C26.1298 7.9248 31.5248 13.3198 31.5248 19.9748H32.0248C32.0248 13.0436 26.406 7.4248 19.4748 7.4248V7.9248ZM7.4248 19.9748C7.4248 13.3198 12.8198 7.9248 19.4748 7.9248V7.4248C12.5436 7.4248 6.9248 13.0436 6.9248 19.9748H7.4248ZM19.4748 32.0248C12.8198 32.0248 7.4248 26.6298 7.4248 19.9748H6.9248C6.9248 26.906 12.5436 32.5248 19.4748 32.5248V32.0248Z" fill="white"/>
</g>
</g>
</svg>
