<svg width="27" height="26" viewBox="0 0 27 26" fill="none" xmlns="http://www.w3.org/2000/svg">
<path fill-rule="evenodd" clip-rule="evenodd" d="M24.3948 15.8914C24.6427 14.961 24.7748 13.9833 24.7748 12.9748C24.7748 11.715 24.5687 10.5034 24.1883 9.37188C24.1707 9.37374 24.1529 9.3747 24.1349 9.3747H18.0527C18.5749 11.6102 18.6089 13.7269 18.3257 15.6609C18.3144 15.738 18.3026 15.8149 18.2903 15.8914H24.3948ZM17.2767 15.8914H9.67293C9.65168 15.7671 9.6318 15.642 9.61335 15.516C9.3392 13.6439 9.37879 11.5754 9.9255 9.3747H17.0241C17.5708 11.5754 17.6104 13.6439 17.3363 15.516C17.3178 15.642 17.2979 15.7671 17.2767 15.8914ZM17.7883 8.3747H23.7992C22.1532 4.68607 18.5885 2.04168 14.3735 1.71002C16.0651 3.99336 17.1555 6.23279 17.7883 8.3747ZM13.4748 2.17762C15.0751 4.30976 16.1195 6.39037 16.7429 8.3747H10.2067C10.8301 6.39037 11.8746 4.30976 13.4748 2.17762ZM17.0726 16.8914C16.3504 19.9337 14.8381 22.3699 13.4748 23.8668C12.1115 22.3699 10.5992 19.9337 9.87699 16.8914H17.0726ZM14.4877 24.23C15.9117 22.5649 17.4021 20.0184 18.0987 16.8914H24.0776C22.5966 20.8992 18.9081 23.8373 14.4877 24.23ZM8.6239 15.6609C8.34068 13.7269 8.37467 11.6102 8.89689 9.3747H2.95154C2.88812 9.3747 2.82747 9.3629 2.77164 9.34136C2.38467 10.4816 2.1748 11.7037 2.1748 12.9748C2.1748 14.2101 2.37301 15.399 2.73936 16.5116C2.72985 16.4731 2.7248 16.4328 2.7248 16.3914C2.7248 16.1153 2.94866 15.8914 3.2248 15.8914H8.65929C8.647 15.8149 8.6352 15.738 8.6239 15.6609ZM9.16134 8.3747C9.79416 6.23279 10.8845 3.99336 12.5761 1.71002C8.36112 2.04168 4.79641 4.68607 3.15043 8.3747H9.16134ZM3.2248 16.8914H8.85087C9.5475 20.0184 11.0379 22.5649 12.4619 24.23C7.93013 23.8274 4.16761 20.7496 2.76429 16.5865C2.8403 16.7657 3.01787 16.8914 3.2248 16.8914ZM13.4748 25.2748C20.2679 25.2748 25.7748 19.7679 25.7748 12.9748C25.7748 6.1817 20.2679 0.674805 13.4748 0.674805C6.6817 0.674805 1.1748 6.1817 1.1748 12.9748C1.1748 19.7679 6.6817 25.2748 13.4748 25.2748Z" fill="white"/>
<path d="M24.3948 15.8914V16.1414H24.5869L24.6364 15.9558L24.3948 15.8914ZM24.1883 9.37188L24.4252 9.29222L24.3613 9.1021L24.1619 9.12327L24.1883 9.37188ZM18.0527 9.3747V9.1247H17.7376L17.8093 9.43157L18.0527 9.3747ZM18.3257 15.6609L18.0783 15.6246V15.6246L18.3257 15.6609ZM18.2903 15.8914L18.0435 15.8518L17.997 16.1414H18.2903V15.8914ZM17.2767 15.8914V16.1414H17.4876L17.5231 15.9335L17.2767 15.8914ZM9.67293 15.8914L9.42651 15.9335L9.46205 16.1414H9.67293V15.8914ZM9.61335 15.516L9.36599 15.5522V15.5522L9.61335 15.516ZM9.9255 9.3747V9.1247H9.73001L9.68288 9.31443L9.9255 9.3747ZM17.0241 9.3747L17.2667 9.31443L17.2196 9.1247H17.0241V9.3747ZM17.3363 15.516L17.5836 15.5522V15.5522L17.3363 15.516ZM17.7883 8.3747L17.5485 8.44554L17.6014 8.6247H17.7883V8.3747ZM23.7992 8.3747V8.6247H24.1845L24.0275 8.27283L23.7992 8.3747ZM14.3735 1.71002L14.3931 1.46079L13.8458 1.41773L14.1726 1.85884L14.3735 1.71002ZM16.7429 8.3747V8.6247H17.0835L16.9814 8.29978L16.7429 8.3747ZM13.4748 2.17762L13.6748 2.02755L13.4748 1.76114L13.2749 2.02755L13.4748 2.17762ZM10.2067 8.3747L9.9682 8.29978L9.86613 8.6247H10.2067V8.3747ZM13.4748 23.8668L13.29 24.0351L13.4748 24.2381L13.6596 24.0351L13.4748 23.8668ZM17.0726 16.8914L17.3159 16.9491L17.3889 16.6414H17.0726V16.8914ZM9.87699 16.8914V16.6414H9.5607L9.63375 16.9491L9.87699 16.8914ZM18.0987 16.8914V16.6414H17.8983L17.8547 16.837L18.0987 16.8914ZM14.4877 24.23L14.2977 24.0675L13.8994 24.5332L14.5098 24.479L14.4877 24.23ZM24.0776 16.8914L24.3121 16.9781L24.4365 16.6414H24.0776V16.8914ZM8.89689 9.3747L9.14034 9.43157L9.21202 9.1247H8.89689V9.3747ZM8.6239 15.6609L8.87126 15.6246L8.6239 15.6609ZM2.77164 9.34136L2.86162 9.10812L2.61861 9.01438L2.53491 9.26102L2.77164 9.34136ZM2.73936 16.5116L2.5019 16.5898L2.98207 16.4517L2.73936 16.5116ZM8.65929 15.8914V16.1414H8.95265L8.90613 15.8518L8.65929 15.8914ZM12.5761 1.71002L12.777 1.85884L13.1038 1.41773L12.5565 1.46079L12.5761 1.71002ZM9.16134 8.3747V8.6247H9.34816L9.4011 8.44554L9.16134 8.3747ZM3.15043 8.3747L2.92213 8.27283L2.76511 8.6247H3.15043V8.3747ZM8.85087 16.8914L9.09488 16.837L9.0513 16.6414H8.85087V16.8914ZM12.4619 24.23L12.4398 24.479L13.0502 24.5332L12.6519 24.0675L12.4619 24.23ZM2.76429 16.5865L2.99445 16.4889L2.52739 16.6663L2.76429 16.5865ZM24.5248 12.9748C24.5248 13.9614 24.3956 14.9174 24.1532 15.827L24.6364 15.9558C24.8898 15.0045 25.0248 14.0052 25.0248 12.9748H24.5248ZM23.9513 9.45154C24.3232 10.5578 24.5248 11.7425 24.5248 12.9748H25.0248C25.0248 11.6876 24.8141 10.4491 24.4252 9.29222L23.9513 9.45154ZM24.1349 9.6247C24.1618 9.6247 24.1885 9.62326 24.2147 9.62048L24.1619 9.12327C24.153 9.12422 24.144 9.1247 24.1349 9.1247V9.6247ZM18.0527 9.6247H24.1349V9.1247H18.0527V9.6247ZM17.8093 9.43157C18.3239 11.6348 18.3573 13.7198 18.0783 15.6246L18.5731 15.6971C18.8606 13.734 18.8259 11.5857 18.2962 9.31783L17.8093 9.43157ZM18.0783 15.6246C18.0672 15.7006 18.0556 15.7763 18.0435 15.8518L18.5372 15.931C18.5496 15.8534 18.5616 15.7754 18.5731 15.6971L18.0783 15.6246ZM24.3948 15.6414H18.2903V16.1414H24.3948V15.6414ZM17.2767 15.6414H9.67293V16.1414H17.2767V15.6414ZM9.91936 15.8493C9.89844 15.7269 9.87887 15.6038 9.86071 15.4797L9.36599 15.5522C9.38473 15.6802 9.40493 15.8073 9.42651 15.9335L9.91936 15.8493ZM9.86071 15.4797C9.59097 13.6378 9.62976 11.6021 10.1681 9.43498L9.68288 9.31443C9.12783 11.5487 9.08744 13.6501 9.36599 15.5522L9.86071 15.4797ZM9.9255 9.6247H17.0241V9.1247H9.9255V9.6247ZM17.5836 15.5522C17.8622 13.6501 17.8218 11.5487 17.2667 9.31443L16.7815 9.43498C17.3199 11.6021 17.3586 13.6378 17.0889 15.4797L17.5836 15.5522ZM17.5231 15.9335C17.5447 15.8073 17.5649 15.6802 17.5836 15.5522L17.0889 15.4797C17.0707 15.6038 17.0512 15.7269 17.0303 15.8493L17.5231 15.9335ZM17.7883 8.6247H23.7992V8.1247H17.7883V8.6247ZM24.0275 8.27283C22.3453 4.50305 18.7021 1.79985 14.3931 1.46079L14.3539 1.95925C18.4749 2.28351 21.9611 4.86909 23.5709 8.47658L24.0275 8.27283ZM14.1726 1.85884C15.8481 4.12031 16.9246 6.33359 17.5485 8.44554L18.028 8.30387C17.3864 6.13198 16.2822 3.86641 14.5744 1.5612L14.1726 1.85884ZM16.9814 8.29978C16.3489 6.28643 15.2907 4.18067 13.6748 2.02755L13.2749 2.32769C14.8594 4.43885 15.8901 6.49431 16.5044 8.44963L16.9814 8.29978ZM10.2067 8.6247H16.7429V8.1247H10.2067V8.6247ZM13.2749 2.02755C11.6589 4.18067 10.6007 6.28643 9.9682 8.29978L10.4452 8.44963C11.0595 6.49431 12.0902 4.43885 13.6748 2.32769L13.2749 2.02755ZM13.6596 24.0351C15.0487 22.5099 16.583 20.0364 17.3159 16.9491L16.8294 16.8337C16.1178 19.831 14.6275 22.2299 13.29 23.6985L13.6596 24.0351ZM9.63375 16.9491C10.3666 20.0364 11.9009 22.5099 13.29 24.0351L13.6596 23.6985C12.3221 22.2299 10.8318 19.831 10.1202 16.8337L9.63375 16.9491ZM17.0726 16.6414H9.87699V17.1414H17.0726V16.6414ZM17.8547 16.837C17.1679 19.9198 15.6981 22.43 14.2977 24.0675L14.6777 24.3925C16.1253 22.6998 17.6363 20.1169 18.3428 16.9458L17.8547 16.837ZM24.0776 16.6414H18.0987V17.1414H24.0776V16.6414ZM14.5098 24.479C19.0288 24.0776 22.7985 21.0743 24.3121 16.9781L23.8431 16.8047C22.3948 20.7242 18.7875 23.597 14.4656 23.981L14.5098 24.479ZM8.65344 9.31783C8.12368 11.5857 8.08905 13.734 8.37654 15.6971L8.87126 15.6246C8.59231 13.7198 8.62566 11.6348 9.14034 9.43157L8.65344 9.31783ZM2.95154 9.6247H8.89689V9.1247H2.95154V9.6247ZM2.68167 9.57461C2.76574 9.60704 2.85687 9.6247 2.95154 9.6247V9.1247C2.91937 9.1247 2.88919 9.11875 2.86162 9.10812L2.68167 9.57461ZM2.4248 12.9748C2.4248 11.7314 2.63008 10.5365 3.00838 9.42171L2.53491 9.26102C2.13927 10.4268 1.9248 11.676 1.9248 12.9748H2.4248ZM2.97682 16.4335C2.61867 15.3458 2.4248 14.1832 2.4248 12.9748H1.9248C1.9248 14.2369 2.12735 15.4523 2.5019 16.5898L2.97682 16.4335ZM2.4748 16.3914C2.4748 16.4532 2.48233 16.5136 2.49664 16.5716L2.98207 16.4517C2.97736 16.4327 2.9748 16.4125 2.9748 16.3914H2.4748ZM3.2248 15.6414C2.81059 15.6414 2.4748 15.9772 2.4748 16.3914H2.9748C2.9748 16.2533 3.08673 16.1414 3.2248 16.1414V15.6414ZM8.65929 15.6414H3.2248V16.1414H8.65929V15.6414ZM8.37654 15.6971C8.38801 15.7754 8.39998 15.8534 8.41246 15.931L8.90613 15.8518C8.89402 15.7763 8.88239 15.7006 8.87126 15.6246L8.37654 15.6971ZM12.3752 1.5612C10.6674 3.86641 9.56326 6.13198 8.92159 8.30387L9.4011 8.44554C10.0251 6.33359 11.1016 4.12031 12.777 1.85884L12.3752 1.5612ZM3.37873 8.47658C4.9885 4.86909 8.47472 2.28351 12.5957 1.95925L12.5565 1.46079C8.24752 1.79985 4.60432 4.50305 2.92213 8.27283L3.37873 8.47658ZM9.16134 8.1247H3.15043V8.6247H9.16134V8.1247ZM8.85087 16.6414H3.2248V17.1414H8.85087V16.6414ZM12.6519 24.0675C11.2515 22.43 9.78168 19.9198 9.09488 16.837L8.60685 16.9458C9.31333 20.1169 10.8243 22.6998 12.2719 24.3925L12.6519 24.0675ZM2.52739 16.6663C3.9617 20.9214 7.80703 24.0675 12.4398 24.479L12.484 23.981C8.05323 23.5874 4.37353 20.5778 3.00119 16.5066L2.52739 16.6663ZM3.2248 16.6414C3.12173 16.6414 3.03266 16.579 2.99445 16.4889L2.53414 16.6841C2.64795 16.9524 2.91402 17.1414 3.2248 17.1414V16.6414ZM25.5248 12.9748C25.5248 19.6298 20.1298 25.0248 13.4748 25.0248V25.5248C20.406 25.5248 26.0248 19.906 26.0248 12.9748H25.5248ZM13.4748 0.924805C20.1298 0.924805 25.5248 6.31977 25.5248 12.9748H26.0248C26.0248 6.04362 20.406 0.424805 13.4748 0.424805V0.924805ZM1.4248 12.9748C1.4248 6.31977 6.81977 0.924805 13.4748 0.924805V0.424805C6.54363 0.424805 0.924805 6.04362 0.924805 12.9748H1.4248ZM13.4748 25.0248C6.81977 25.0248 1.4248 19.6298 1.4248 12.9748H0.924805C0.924805 19.906 6.54363 25.5248 13.4748 25.5248V25.0248Z" fill="white"/>
</svg>
