<svg width="26" height="26" viewBox="0 0 26 26" fill="none" xmlns="http://www.w3.org/2000/svg">
<path d="M18.8288 6.75C18.8288 9.75178 16.2558 12.25 12.9998 12.25C9.74389 12.25 7.1709 9.75178 7.1709 6.75C7.1709 3.74822 9.74389 1.25 12.9998 1.25C16.2558 1.25 18.8288 3.74822 18.8288 6.75Z" stroke="white" stroke-width="1.5"/>
<path d="M23.9487 22.2787C15.5145 27.3891 6.76659 24.9014 2.11678 22.2771C1.09702 21.7015 0.63262 20.4863 1.24097 19.4857C2.70148 17.0837 6.30567 14 13 14C19.8618 14 23.4769 16.9807 24.8646 19.511C25.4124 20.5097 24.9228 21.6884 23.9487 22.2787Z" stroke="white" stroke-width="1.5" stroke-linecap="round"/>
</svg>
