<svg width="40" height="41" viewBox="0 0 40 41" fill="none" xmlns="http://www.w3.org/2000/svg">
<path d="M24.8288 14.75C24.8288 17.7518 22.2558 20.25 18.9998 20.25C15.7439 20.25 13.1709 17.7518 13.1709 14.75C13.1709 11.7482 15.7439 9.25 18.9998 9.25C22.2558 9.25 24.8288 11.7482 24.8288 14.75Z" stroke="white" stroke-width="1.5"/>
<path d="M29.9487 30.2787C21.5145 35.3891 12.7666 32.9014 8.11678 30.2771C7.09702 29.7015 6.63262 28.4863 7.24097 27.4857C8.70148 25.0837 12.3057 22 19 22C25.8618 22 29.4769 24.9807 30.8646 27.511C31.4124 28.5097 30.9228 29.6884 29.9487 30.2787Z" stroke="white" stroke-width="1.5" stroke-linecap="round"/>
</svg>
